<svg width="158" height="40" viewBox="0 0 158 40" fill="none" xmlns="http://www.w3.org/2000/svg">
<path d="M33.3804 34.1956L39.8335 20.2552H43.2935L49.7501 34.1956H46.2069L44.4769 30.4773H37.619L35.8889 34.1956H33.3804ZM38.4771 28.6216H43.6257L41.0514 23.0718L38.4771 28.6216Z" fill="#505F79"/>
<path d="M86.3508 34.1954V20.255H92.579C93.5641 20.2125 94.5488 20.3488 95.4855 20.6574C96.1161 20.8997 96.6621 21.3217 97.0564 21.8714C97.4407 22.4075 97.6432 23.0531 97.6342 23.7132C97.6253 24.558 97.3286 25.3743 96.7934 26.0268C96.1734 26.7945 95.3493 27.3706 94.4163 27.6883L99.8487 34.1954H95.6273L91.4995 28.4999H89.6033V34.1954H86.3508ZM89.6033 26.5887H90.3957C91.8212 26.5887 92.8051 26.3286 93.3471 25.8083C93.5981 25.5859 93.7998 25.3133 93.9393 25.008C94.0787 24.7027 94.1528 24.3716 94.1568 24.0358C94.1653 23.7724 94.1096 23.5108 93.9944 23.2739C93.8792 23.037 93.7081 22.8318 93.4959 22.6761C93.053 22.3293 92.1603 22.1732 90.804 22.1732H89.6033V26.5887Z" fill="#505F79"/>
<path d="M144.052 34.1955V20.2551H150.28C151.266 20.2124 152.252 20.3487 153.19 20.6574C153.82 20.8998 154.366 21.3218 154.761 21.8715C155.146 22.4073 155.35 23.0528 155.342 23.7133C155.332 24.5584 155.034 25.3747 154.498 26.0269C153.878 26.7946 153.053 27.3706 152.12 27.6883L157.546 34.1955H153.342L149.214 28.5H147.318V34.1955H144.052ZM147.318 26.5888H148.11C149.536 26.5888 150.518 26.3286 151.058 25.8083C151.31 25.5862 151.512 25.3137 151.652 25.0084C151.792 24.7031 151.867 24.3719 151.871 24.0359C151.88 23.7721 151.824 23.5103 151.708 23.2732C151.592 23.0362 151.42 22.8312 151.207 22.6762C150.769 22.3409 149.871 22.1732 148.515 22.1732H147.318V26.5888Z" fill="#505F79"/>
<path d="M132.924 34.5425C131.377 34.5769 129.841 34.2702 128.426 33.6441C127.213 33.1012 126.196 32.1979 125.512 31.0565C124.856 29.8885 124.512 28.5709 124.512 27.2306C124.512 25.8904 124.856 24.5728 125.512 23.4048C126.196 22.2557 127.219 21.3479 128.439 20.8068C129.865 20.2124 131.394 19.9064 132.937 19.9064C134.481 19.9064 136.01 20.2124 137.436 20.8068C138.656 21.3471 139.678 22.2552 140.359 23.4048C141.015 24.5728 141.36 25.8904 141.36 27.2306C141.36 28.5709 141.015 29.8885 140.359 31.0565C139.678 32.1986 138.662 33.1022 137.449 33.6441C136.035 34.2725 134.498 34.5793 132.951 34.5425H132.924ZM132.924 32.6209C134.527 32.6209 135.717 32.074 136.494 30.9802C137.26 29.876 137.671 28.5633 137.671 27.2185C137.671 25.8737 137.26 24.561 136.494 23.4568C135.709 22.3642 134.522 21.8231 132.931 21.8231C131.339 21.8231 130.138 22.3642 129.356 23.4568C128.591 24.561 128.18 25.8737 128.18 27.2185C128.18 28.5633 128.591 29.876 129.356 30.9802C130.138 32.074 131.333 32.6209 132.941 32.6209H132.924Z" fill="#505F79"/>
<path d="M122.713 33.6406C122.098 33.8788 121.463 34.0644 120.817 34.1956C120.277 34.2962 119.672 34.3794 118.983 34.4453C118.294 34.5112 117.623 34.5424 116.959 34.5424C114.057 34.5424 111.892 33.8557 110.464 32.4821C109.759 31.8059 109.204 30.9885 108.835 30.0831C108.466 29.1778 108.292 28.2047 108.322 27.2271C108.289 26.2483 108.462 25.2734 108.829 24.3661C109.197 23.4588 109.752 22.6395 110.457 21.9618C111.883 20.5905 114.122 19.906 117.173 19.9083C118.981 19.9097 120.785 20.0898 122.557 20.446V22.7144C121.695 22.4647 120.991 22.282 120.447 22.1664C119.903 22.0485 119.381 21.9618 118.893 21.9063C118.407 21.8511 117.919 21.8233 117.429 21.823C115.524 21.823 114.14 22.3364 113.277 23.3631C112.404 24.4381 111.947 25.7929 111.99 27.1786C111.96 27.8892 112.073 28.5987 112.324 29.2641C112.575 29.9295 112.958 30.5369 113.45 31.0495C114.426 32.0346 115.88 32.5272 117.814 32.5272C119.499 32.509 121.165 32.1553 122.713 31.4866V33.6233V33.6406Z" fill="#505F79"/>
<path d="M102.091 34.1991V20.2587H105.544V34.1991H102.091Z" fill="#505F79"/>
<path d="M72.9673 34.1991V20.2587H83.5932V22.1699H76.4205V26.0582H82.3476V27.9798H76.4205V32.2219H84.1226V34.1991H72.9673Z" fill="#505F79"/>
<path d="M52.2168 34.1991V20.2587H56.7876L60.7909 30.061L64.9119 20.2587H68.9256V34.1991H65.7389V23.6787L61.6871 33.266H58.9086L54.933 23.5365V34.1991H52.2168Z" fill="#505F79"/>
<path d="M21.6609 33.9181L31.9097 11.7883L30.5533 11.6253L37.7296 5.45459L39.252 15.0835L37.9164 14.0637L28.7195 33.9181H21.6609Z" fill="url(#paint0_linear_914_17034)"/>
<path d="M20.4429 16.391L21.6366 13.8173L24.0517 8.59705L27.6468 16.0823L24.0379 23.8728L20.4429 16.391Z" fill="url(#paint1_linear_914_17034)"/>
<path d="M9.99341 33.9181L20.4498 11.3444L22.865 6.12756L26.46 13.6094L17.0555 33.9181H9.99341Z" fill="url(#paint2_linear_914_17034)"/>
<path d="M0.454102 33.9181L7.29472 19.1453L9.71333 13.9285L13.3049 21.4103L7.5127 33.9181H0.454102Z" fill="url(#paint3_linear_914_17034)"/>
<defs>
<linearGradient id="paint0_linear_914_17034" x1="30.5865" y1="4.76489" x2="30.5865" y2="33.1598" gradientUnits="userSpaceOnUse">
<stop offset="0.19" stop-color="#2D4C5D"/>
<stop offset="0.81" stop-color="#83A6C6"/>
</linearGradient>
<linearGradient id="paint1_linear_914_17034" x1="24.1742" y1="23.139" x2="24.1742" y2="7.90124" gradientUnits="userSpaceOnUse">
<stop offset="0.26" stop-color="#862420"/>
<stop offset="0.74" stop-color="#A23A2E"/>
</linearGradient>
<linearGradient id="paint2_linear_914_17034" x1="17.9837" y1="33.2649" x2="17.9837" y2="5.54296" gradientUnits="userSpaceOnUse">
<stop stop-color="#B82C2A"/>
<stop offset="1" stop-color="#DE493B"/>
</linearGradient>
<linearGradient id="paint3_linear_914_17034" x1="3392.4" y1="15309.2" x2="3392.4" y2="14159.9" gradientUnits="userSpaceOnUse">
<stop offset="0.19" stop-color="#2D4C5D"/>
<stop offset="0.81" stop-color="#83A6C6"/>
</linearGradient>
</defs>
</svg>
